<svg width="237" height="143" viewBox="0 0 237 143" fill="none" xmlns="http://www.w3.org/2000/svg">
<rect width="237" height="143" fill="#343233"/>
<rect width="25.0573" height="26.8697" transform="translate(86 21)" fill="#343233"/>
<rect x="86" y="29.0154" width="16.9594" height="21.3946" transform="rotate(-28.2047 86 29.0154)" fill="white"/>
<rect width="25.0573" height="26.8697" transform="translate(121 88)" fill="#343233"/>
<rect x="121" y="96.0154" width="16.9594" height="21.3946" transform="rotate(-28.2047 121 96.0154)" fill="white"/>
<path d="M109.988 47.2657C116.714 45.2973 122.433 46.7244 125.456 51.2413L141.026 46.6843C134.409 32.6167 120.299 30.5446 107.215 34.3735C94.1322 38.2025 81.3433 48.8472 85.334 62.4832C88.8394 74.4608 100.208 76.7352 111.754 75.8567L120.347 75.1423C128.084 74.5784 133.864 75.1875 135.131 79.5179C136.749 85.046 131.181 88.5762 125.837 90.1402C117.637 92.54 111.165 90.9331 107.365 84.4432L91.7021 89.0272C98.3041 102.699 112.052 107.978 129.189 102.963C143.102 98.891 154.88 86.8418 150.781 72.8373C146.682 58.8327 132.076 59.5066 120.649 60.4502L110.988 61.277C106.085 61.6117 102.251 60.133 101.28 56.8161C100.067 52.67 103.907 49.0454 109.988 47.2657Z" fill="white"/>
</svg>
