<svg width="170" height="170" viewBox="0 0 170 170" fill="none" xmlns="http://www.w3.org/2000/svg">
<rect width="170" height="170" rx="24" fill="#D2DBE4"/>
<rect x="24" y="82" width="121" height="65" fill="#1C1E20"/>
<rect x="68" y="41" width="29" height="27" fill="#1C1E20"/>
<path d="M47 147L14.7174 82.4887L14 81V147H47Z" fill="#D2DBE4"/>
<path d="M137.5 63.5C137.5 72.6558 128.576 80.5 117 80.5C105.424 80.5 96.5 72.6558 96.5 63.5C96.5 54.3442 105.424 46.5 117 46.5C128.576 46.5 137.5 54.3442 137.5 63.5Z" fill="#1C1E20" stroke="#D2DBE4" stroke-width="3"/>
<path d="M122 148L158.196 82.5113L159 81V148H122Z" fill="#D2DBE4"/>
<path d="M52 99.5C52 96.4624 54.4624 94 57.5 94V94C60.5376 94 63 96.4624 63 99.5V130.5C63 133.538 60.5376 136 57.5 136V136C54.4624 136 52 133.538 52 130.5V99.5Z" fill="#D2DBE4"/>
<path d="M29.0209 43.8446C26.5625 36.2231 30.748 28.0518 38.3694 25.5935V25.5935C45.9909 23.1351 54.1622 27.3206 56.6206 34.942L72.4303 83.9553L44.8306 92.8579L29.0209 43.8446Z" fill="#1C1E20"/>
<path d="M79 103.5C79 100.462 81.4624 98 84.5 98V98C87.5376 98 90 100.462 90 103.5V134.5C90 137.538 87.5376 140 84.5 140V140C81.4624 140 79 137.538 79 134.5V103.5Z" fill="#D2DBE4"/>
<path d="M106 99.5C106 96.4624 108.462 94 111.5 94V94C114.538 94 117 96.4624 117 99.5V130.5C117 133.538 114.538 136 111.5 136V136C108.462 136 106 133.538 106 130.5V99.5Z" fill="#D2DBE4"/>
<rect x="23.5" y="69.5" width="122" height="11" rx="5.5" fill="#1C1E20" stroke="#D2DBE4" stroke-width="3"/>
<rect x="44.0015" y="34.0117" width="11.9233" height="2" transform="rotate(-15.2786 44.0015 34.0117)" fill="#D2DBE4"/>
<path d="M46.7365 42.1773L58.2384 39.0354L58.7654 40.9647L47.2635 44.1066L46.7365 42.1773Z" fill="#D2DBE4"/>
<rect x="50" y="50.142" width="11.9233" height="2" transform="rotate(-15.2786 50 50.142)" fill="#D2DBE4"/>
</svg>
