<svg width="170" height="170" viewBox="0 0 170 170" fill="none" xmlns="http://www.w3.org/2000/svg">
<rect width="170" height="170" rx="24" fill="#0248E0"/>
<path d="M46.8395 111H32.9986L54.0881 49.9091H70.733L91.7926 111H77.9517L62.6491 63.8693H62.1719L46.8395 111ZM45.9744 86.9872H78.6676V97.0696H45.9744V86.9872Z" fill="#F1F1F1"/>
<path d="M106.136 111.865C103.213 111.865 100.608 111.358 98.321 110.344C96.0341 109.31 94.2244 107.788 92.892 105.78C91.5795 103.751 90.9233 101.226 90.9233 98.2031C90.9233 95.6577 91.3906 93.5199 92.3253 91.7898C93.2599 90.0597 94.5327 88.6676 96.1435 87.6136C97.7543 86.5597 99.5838 85.7642 101.632 85.2273C103.7 84.6903 105.868 84.3125 108.135 84.0938C110.8 83.8153 112.947 83.5568 114.578 83.3182C116.209 83.0597 117.392 82.6818 118.128 82.1847C118.864 81.6875 119.232 80.9517 119.232 79.9773V79.7983C119.232 77.9091 118.635 76.4474 117.442 75.4134C116.268 74.3793 114.598 73.8622 112.43 73.8622C110.143 73.8622 108.324 74.3693 106.972 75.3835C105.619 76.3778 104.724 77.6307 104.287 79.142L92.5341 78.1875C93.1307 75.4034 94.304 72.9972 96.054 70.9688C97.804 68.9205 100.061 67.3494 102.825 66.2557C105.609 65.142 108.831 64.5852 112.49 64.5852C115.036 64.5852 117.472 64.8835 119.798 65.4801C122.145 66.0767 124.223 67.0014 126.033 68.2543C127.862 69.5071 129.304 71.1179 130.358 73.0866C131.412 75.0355 131.939 77.3722 131.939 80.0966V111H119.888V104.646H119.53C118.794 106.078 117.81 107.341 116.577 108.435C115.344 109.509 113.862 110.354 112.132 110.97C110.402 111.567 108.403 111.865 106.136 111.865ZM109.776 103.095C111.645 103.095 113.295 102.727 114.727 101.991C116.159 101.236 117.283 100.222 118.098 98.9489C118.913 97.6761 119.321 96.2344 119.321 94.6236V89.7614C118.923 90.0199 118.376 90.2585 117.68 90.4773C117.004 90.6761 116.239 90.8651 115.384 91.044C114.528 91.2031 113.673 91.3523 112.818 91.4915C111.963 91.6108 111.188 91.7202 110.491 91.8196C109 92.0384 107.697 92.3864 106.584 92.8636C105.47 93.3409 104.605 93.9872 103.989 94.8026C103.372 95.598 103.064 96.5923 103.064 97.7855C103.064 99.5156 103.69 100.838 104.943 101.753C106.216 102.648 107.827 103.095 109.776 103.095Z" fill="#F1F1F1" fill-opacity="0.22"/>
</svg>
