<svg width="170" height="170" viewBox="0 0 170 170" fill="none" xmlns="http://www.w3.org/2000/svg">
<rect width="170" height="170" rx="24" fill="#8CC8E4"/>
<path fill-rule="evenodd" clip-rule="evenodd" d="M41 19C34.9249 19 30 23.9249 30 30V149.75L43 140L55.8333 151H56.3333L71 140L83.8333 151H84.3333L99 140L111.6 150.8L126 140L138.833 151H141V30C141 23.9249 136.075 19 130 19H41Z" fill="#F1F1F1"/>
<path d="M43.1335 44L44.7188 35.2727H46.0824L44.4972 44H43.1335ZM39.2642 41.8352L39.5199 40.4716H46.3381L46.0824 41.8352H39.2642ZM40.0653 44L41.6506 35.2727H43.0142L41.429 44H40.0653ZM39.8182 38.8011L40.0696 37.4375H46.8878L46.6364 38.8011H39.8182ZM49.7834 44L51.2322 35.2727H54.6754C55.3345 35.2727 55.8771 35.3892 56.3033 35.6222C56.7322 35.8551 57.0334 36.1861 57.2067 36.6151C57.3828 37.0412 57.424 37.544 57.3303 38.1236C57.2337 38.7031 57.0249 39.2003 56.7038 39.6151C56.3857 40.0298 55.9709 40.3494 55.4595 40.5739C54.951 40.7955 54.3615 40.9062 53.6911 40.9062H51.3857L51.6413 39.4233H53.6442C53.9964 39.4233 54.2976 39.375 54.5476 39.2784C54.7976 39.1818 54.995 39.0369 55.1399 38.8438C55.2876 38.6506 55.3842 38.4105 55.4297 38.1236C55.478 37.831 55.4609 37.5866 55.3786 37.3906C55.2962 37.1918 55.147 37.0412 54.9311 36.9389C54.7152 36.8338 54.4311 36.7812 54.0788 36.7812H52.8345L51.6286 44H49.7834ZM55.1527 40.0284L56.6655 44H54.6286L53.1626 40.0284H55.1527ZM60.555 44.1278C59.8846 44.1278 59.3292 43.9915 58.8888 43.7188C58.4485 43.4432 58.1388 43.054 57.9599 42.5511C57.7837 42.0455 57.7539 41.4474 57.8704 40.7571C57.984 40.0838 58.2127 39.4929 58.5565 38.9844C58.9031 38.4759 59.3377 38.0795 59.8604 37.7955C60.3832 37.5114 60.9656 37.3693 61.6076 37.3693C62.0394 37.3693 62.43 37.4389 62.7795 37.5781C63.1317 37.7145 63.4244 37.9219 63.6573 38.2003C63.8903 38.4759 64.0494 38.821 64.1346 39.2358C64.2227 39.6506 64.2212 40.1364 64.1303 40.6932L64.0494 41.1918H58.5266L58.7013 40.0668H62.5195C62.5621 39.8054 62.5451 39.5739 62.4684 39.3722C62.3917 39.1705 62.2638 39.0128 62.0849 38.8991C61.9059 38.7827 61.6857 38.7244 61.4244 38.7244C61.1573 38.7244 60.9073 38.7898 60.6744 38.9205C60.4414 39.0511 60.2454 39.223 60.0863 39.4361C59.93 39.6463 59.8292 39.875 59.7837 40.1222L59.5835 41.2386C59.5266 41.5824 59.538 41.8679 59.6175 42.0952C59.6999 42.3224 59.842 42.4929 60.0437 42.6065C60.2454 42.7173 60.5011 42.7727 60.8107 42.7727C61.0124 42.7727 61.2013 42.7443 61.3775 42.6875C61.5565 42.6307 61.7156 42.5469 61.8548 42.4361C61.994 42.3224 62.1076 42.1818 62.1957 42.0142L63.8533 42.125C63.6999 42.5284 63.467 42.8807 63.1545 43.1818C62.842 43.4801 62.4656 43.7131 62.0252 43.8807C61.5877 44.0455 61.0977 44.1278 60.555 44.1278ZM67.7131 44.1278C67.0398 44.1278 66.4858 43.9858 66.0511 43.7017C65.6193 43.4148 65.3168 43.017 65.1435 42.5085C64.973 42 64.9432 41.4148 65.054 40.7528C65.1619 40.0824 65.3878 39.4943 65.7315 38.9886C66.0753 38.4801 66.5114 38.0838 67.0398 37.7997C67.571 37.5128 68.1676 37.3693 68.8295 37.3693C69.4006 37.3693 69.8835 37.473 70.2784 37.6804C70.6733 37.8878 70.9631 38.179 71.1477 38.554C71.3324 38.929 71.3949 39.3693 71.3352 39.875H69.6264C69.6293 39.5511 69.5455 39.2884 69.375 39.0866C69.2045 38.8849 68.9545 38.7841 68.625 38.7841C68.3409 38.7841 68.0795 38.8608 67.8409 39.0142C67.6051 39.1648 67.4048 39.3849 67.2401 39.6747C67.0781 39.9645 66.9645 40.3153 66.8991 40.7273C66.831 41.1449 66.8295 41.5 66.8949 41.7926C66.9602 42.0852 67.0852 42.3082 67.2699 42.4616C67.4545 42.6151 67.6875 42.6918 67.9688 42.6918C68.179 42.6918 68.3736 42.6491 68.5526 42.5639C68.7344 42.4787 68.8935 42.3551 69.0298 42.1932C69.1662 42.0284 69.2713 41.831 69.3452 41.6009H71.0582C70.9418 42.1037 70.7301 42.544 70.4233 42.9219C70.1193 43.2997 69.7372 43.5952 69.277 43.8082C68.8168 44.0213 68.2955 44.1278 67.7131 44.1278ZM74.7816 44.1278C74.1112 44.1278 73.5558 43.9915 73.1154 43.7188C72.6751 43.4432 72.3654 43.054 72.1864 42.5511C72.0103 42.0455 71.9805 41.4474 72.0969 40.7571C72.2106 40.0838 72.4393 39.4929 72.783 38.9844C73.1296 38.4759 73.5643 38.0795 74.087 37.7955C74.6097 37.5114 75.1921 37.3693 75.8342 37.3693C76.266 37.3693 76.6566 37.4389 77.006 37.5781C77.3583 37.7145 77.6509 37.9219 77.8839 38.2003C78.1168 38.4759 78.2759 38.821 78.3612 39.2358C78.4492 39.6506 78.4478 40.1364 78.3569 40.6932L78.2759 41.1918H72.7532L72.9279 40.0668H76.7461C76.7887 39.8054 76.7717 39.5739 76.695 39.3722C76.6183 39.1705 76.4904 39.0128 76.3114 38.8991C76.1325 38.7827 75.9123 38.7244 75.6509 38.7244C75.3839 38.7244 75.1339 38.7898 74.9009 38.9205C74.668 39.0511 74.4719 39.223 74.3129 39.4361C74.1566 39.6463 74.0558 39.875 74.0103 40.1222L73.81 41.2386C73.7532 41.5824 73.7646 41.8679 73.8441 42.0952C73.9265 42.3224 74.0685 42.4929 74.2702 42.6065C74.4719 42.7173 74.7276 42.7727 75.0373 42.7727C75.239 42.7727 75.4279 42.7443 75.604 42.6875C75.783 42.6307 75.9421 42.5469 76.0813 42.4361C76.2205 42.3224 76.3342 42.1818 76.4222 42.0142L78.0799 42.125C77.9265 42.5284 77.6935 42.8807 77.381 43.1818C77.0685 43.4801 76.6921 43.7131 76.2518 43.8807C75.8143 44.0455 75.3242 44.1278 74.7816 44.1278ZM78.9993 44L80.0902 37.4545H81.9055L80.8146 44H78.9993ZM81.1854 36.6023C80.9155 36.6023 80.6925 36.5128 80.5163 36.3338C80.343 36.152 80.272 35.9361 80.3033 35.6861C80.3345 35.4304 80.4567 35.2145 80.6697 35.0384C80.8828 34.8594 81.1243 34.7699 81.3942 34.7699C81.6641 34.7699 81.8842 34.8594 82.0547 35.0384C82.2251 35.2145 82.2962 35.4304 82.2678 35.6861C82.2393 35.9361 82.1186 36.152 81.9055 36.3338C81.6953 36.5128 81.4553 36.6023 81.1854 36.6023ZM81.8725 46.4545L83.381 37.4545H85.1708L84.9876 38.554H85.0685C85.1765 38.3778 85.32 38.1989 85.4989 38.017C85.6808 37.8324 85.9066 37.679 86.1765 37.5568C86.4464 37.4318 86.7631 37.3693 87.1268 37.3693C87.6069 37.3693 88.0259 37.4943 88.3839 37.7443C88.7418 37.9915 89.0004 38.3651 89.1594 38.8651C89.3214 39.3622 89.3398 39.9858 89.2148 40.7358C89.0955 41.4659 88.8754 42.0824 88.5543 42.5852C88.2362 43.0852 87.854 43.4645 87.408 43.723C86.9648 43.9787 86.4947 44.1065 85.9975 44.1065C85.6452 44.1065 85.3555 44.0483 85.1282 43.9318C84.9038 43.8153 84.729 43.669 84.604 43.4929C84.479 43.3139 84.391 43.1335 84.3398 42.9517H84.2717L83.6921 46.4545H81.8725ZM84.6126 40.7273C84.5501 41.1165 84.5472 41.456 84.604 41.7457C84.6637 42.0355 84.783 42.2614 84.962 42.4233C85.141 42.5824 85.3768 42.6619 85.6694 42.6619C85.9648 42.6619 86.2276 42.581 86.4577 42.419C86.6879 42.2543 86.8796 42.027 87.033 41.7372C87.1864 41.4446 87.2958 41.108 87.3612 40.7273C87.4208 40.3494 87.4222 40.017 87.3654 39.7301C87.3086 39.4432 87.1921 39.2187 87.016 39.0568C86.8398 38.8949 86.6012 38.8139 86.3001 38.8139C86.0075 38.8139 85.7447 38.892 85.5117 39.0483C85.2816 39.2045 85.0898 39.4261 84.9364 39.7131C84.783 40 84.6751 40.3381 84.6126 40.7273ZM94.4467 37.4545L94.2209 38.8182H90.2749L90.505 37.4545H94.4467ZM91.6555 35.8864H93.4709L92.4567 41.9886C92.4283 42.1562 92.4325 42.2869 92.4695 42.3807C92.5064 42.4716 92.5675 42.5355 92.6527 42.5724C92.7408 42.6094 92.8459 42.6278 92.968 42.6278C93.0533 42.6278 93.1399 42.6207 93.228 42.6065C93.3161 42.5895 93.3828 42.5767 93.4283 42.5682L93.4964 43.919C93.3942 43.9503 93.2564 43.9844 93.0831 44.0213C92.9126 44.0582 92.7109 44.081 92.478 44.0895C92.0348 44.1065 91.6598 44.0483 91.353 43.9148C91.0462 43.7784 90.826 43.5696 90.6925 43.2884C90.5589 43.0071 90.5305 42.6534 90.6072 42.2273L91.6555 35.8864Z" fill="black"/>
<path d="M38 62.5556C55.2 62.5556 74 54.5556 89.5 62.5556C105 70.5556 110 55.5557 116 62.5556C122 69.5554 130 62.5556 130 62.5556" stroke="black" stroke-width="3"/>
<path d="M38 79.5556C55.2 79.5556 74 71.5556 89.5 79.5556C105 87.5556 110 72.5557 116 79.5556C122 86.5554 130 79.5556 130 79.5556" stroke="black" stroke-width="3"/>
<path d="M38 96.5556C55.2 96.5556 74 88.5556 89.5 96.5556C105 104.556 110 89.5557 116 96.5556C122 103.555 130 96.5556 130 96.5556" stroke="black" stroke-width="3"/>
</svg>
